<svg xmlns="http://www.w3.org/2000/svg" viewBox="0 0 64 64" shape-rendering="geometricPrecision">
  <defs>
    <linearGradient id="cloud" x1="0" y1="0" x2="0" y2="1">
      <stop offset="0" stop-color="#ffffff"/>
      <stop offset="0.58" stop-color="#f2f7ff"/>
      <stop offset="1" stop-color="#c7d8f0"/>
    </linearGradient>
    <radialGradient id="sun" cx="35%" cy="30%" r="70%">
      <stop offset="0" stop-color="#fffde3"/>
      <stop offset="0.38" stop-color="#fff05e"/>
      <stop offset="0.76" stop-color="#ffc51c"/>
      <stop offset="1" stop-color="#ffae12"/>
    </radialGradient>
    <filter id="shadow" x="-20%" y="-20%" width="140%" height="145%">
      <feDropShadow dx="0" dy="2.5" stdDeviation="1.8" flood-color="#003b78" flood-opacity="0.32"/>
    </filter>
  </defs>

  <rect width="64" height="64" rx="13" fill="#168bef"/>

  <g filter="url(#shadow)">
    <g fill="#fff25a">
      <rect x="22" y="8" width="4" height="10" rx="2"/>
      <rect x="22" y="8" width="4" height="10" rx="2" transform="rotate(45 24 29)"/>
      <rect x="22" y="8" width="4" height="10" rx="2" transform="rotate(90 24 29)"/>
      <rect x="22" y="8" width="4" height="10" rx="2" transform="rotate(135 24 29)"/>
      <rect x="22" y="8" width="4" height="10" rx="2" transform="rotate(180 24 29)"/>
      <rect x="22" y="8" width="4" height="10" rx="2" transform="rotate(225 24 29)"/>
      <rect x="22" y="8" width="4" height="10" rx="2" transform="rotate(270 24 29)"/>
      <rect x="22" y="8" width="4" height="10" rx="2" transform="rotate(315 24 29)"/>
    </g>

    <circle cx="24" cy="29" r="15" fill="url(#sun)"/>

    <ellipse cx="38" cy="43" rx="22" ry="10" fill="url(#cloud)"/>
    <circle cx="27" cy="41" r="10" fill="url(#cloud)"/>
    <circle cx="38" cy="36" r="13" fill="url(#cloud)"/>
    <circle cx="50" cy="43" r="9" fill="url(#cloud)"/>
    <rect x="24" y="42" width="31" height="11" rx="6" fill="url(#cloud)"/>
    <path d="M25 38c3-8 10-13 19-13 5 0 10 2 14 5-5-2-10-3-16-2-9 1-15 4-17 10z" fill="#ffffff" opacity="0.72"/>
  </g>
</svg>
